<mxfile host="app.diagrams.net" agent="Mozilla/5.0 (Windows NT 10.0; Win64; x64; rv:144.0) Gecko/20100101 Firefox/144.0" version="28.2.8" pages="5">
  <diagram name="APE" id="9DQ2KsAMrspUBOeCoR8h">
    <mxGraphModel dx="1503" dy="875" grid="0" gridSize="10" guides="1" tooltips="1" connect="1" arrows="1" fold="1" page="1" pageScale="1" pageWidth="827" pageHeight="1169" math="0" shadow="0">
      <root>
        <mxCell id="0" />
        <mxCell id="1" parent="0" />
        <mxCell id="yLiQb6hiJFcwv4kmprrE-2" value="&lt;font style=&quot;font-size: 16px;&quot;&gt;Abkürzungen&lt;/font&gt;" style="text;strokeColor=none;fillColor=none;html=1;fontSize=24;fontStyle=1;verticalAlign=middle;align=center;" parent="1" vertex="1">
          <mxGeometry x="667" y="1020" width="100" height="40" as="geometry" />
        </mxCell>
        <mxCell id="yLiQb6hiJFcwv4kmprrE-7" value="&lt;div align=&quot;left&quot;&gt;APE: Allgemeiner Posteingang&lt;/div&gt;" style="text;html=1;whiteSpace=wrap;strokeColor=none;fillColor=none;align=left;verticalAlign=middle;rounded=0;" parent="1" vertex="1">
          <mxGeometry x="667" y="1060" width="110" height="30" as="geometry" />
        </mxCell>
        <mxCell id="MWATgh_TcSmmH0ezRNN8-1" value="" style="group" vertex="1" connectable="0" parent="1">
          <mxGeometry x="331" y="140" width="170" height="546" as="geometry" />
        </mxCell>
        <mxCell id="yLiQb6hiJFcwv4kmprrE-1" value="Logistik - APE" style="text;strokeColor=none;fillColor=none;html=1;fontSize=24;fontStyle=1;verticalAlign=middle;align=center;" parent="MWATgh_TcSmmH0ezRNN8-1" vertex="1">
          <mxGeometry width="170" height="40" as="geometry" />
        </mxCell>
        <mxCell id="yLiQb6hiJFcwv4kmprrE-3" value="" style="rounded=0;whiteSpace=wrap;html=1;" parent="MWATgh_TcSmmH0ezRNN8-1" vertex="1">
          <mxGeometry x="11" y="60" width="120" height="60" as="geometry" />
        </mxCell>
        <mxCell id="yLiQb6hiJFcwv4kmprrE-4" value="Start" style="text;strokeColor=none;fillColor=none;html=1;align=center;verticalAlign=middle;whiteSpace=wrap;rounded=0;fontSize=16;" parent="MWATgh_TcSmmH0ezRNN8-1" vertex="1">
          <mxGeometry x="30" y="72.5" width="85" height="35" as="geometry" />
        </mxCell>
        <mxCell id="yLiQb6hiJFcwv4kmprrE-5" value="" style="rounded=0;whiteSpace=wrap;html=1;" parent="MWATgh_TcSmmH0ezRNN8-1" vertex="1">
          <mxGeometry x="11" y="178" width="120" height="60" as="geometry" />
        </mxCell>
        <mxCell id="yLiQb6hiJFcwv4kmprrE-6" value="Start&lt;div&gt;Posteingang&lt;/div&gt;" style="text;html=1;whiteSpace=wrap;strokeColor=none;fillColor=none;align=center;verticalAlign=middle;rounded=0;" parent="MWATgh_TcSmmH0ezRNN8-1" vertex="1">
          <mxGeometry x="41" y="193" width="60" height="30" as="geometry" />
        </mxCell>
        <mxCell id="yLiQb6hiJFcwv4kmprrE-8" value="" style="rounded=0;whiteSpace=wrap;html=1;" parent="MWATgh_TcSmmH0ezRNN8-1" vertex="1">
          <mxGeometry x="11" y="278" width="120" height="60" as="geometry" />
        </mxCell>
        <mxCell id="yLiQb6hiJFcwv4kmprrE-9" value="Prüfung&lt;div&gt;Allg. Posteingang&lt;/div&gt;" style="text;html=1;whiteSpace=wrap;strokeColor=none;fillColor=none;align=center;verticalAlign=middle;rounded=0;" parent="MWATgh_TcSmmH0ezRNN8-1" vertex="1">
          <mxGeometry x="16" y="293" width="110" height="30" as="geometry" />
        </mxCell>
        <mxCell id="yLiQb6hiJFcwv4kmprrE-10" value="" style="rounded=0;whiteSpace=wrap;html=1;" parent="MWATgh_TcSmmH0ezRNN8-1" vertex="1">
          <mxGeometry x="11" y="378" width="120" height="60" as="geometry" />
        </mxCell>
        <mxCell id="yLiQb6hiJFcwv4kmprrE-11" value="Kenntnisnahme-&lt;div&gt;Krankschreibung&lt;/div&gt;" style="text;html=1;whiteSpace=wrap;strokeColor=none;fillColor=none;align=center;verticalAlign=middle;rounded=0;" parent="MWATgh_TcSmmH0ezRNN8-1" vertex="1">
          <mxGeometry x="36" y="393" width="60" height="30" as="geometry" />
        </mxCell>
        <mxCell id="yLiQb6hiJFcwv4kmprrE-12" value="" style="rounded=0;whiteSpace=wrap;html=1;" parent="MWATgh_TcSmmH0ezRNN8-1" vertex="1">
          <mxGeometry x="11" y="486" width="120" height="60" as="geometry" />
        </mxCell>
        <mxCell id="yLiQb6hiJFcwv4kmprrE-13" value="Ende" style="text;strokeColor=none;fillColor=none;html=1;align=center;verticalAlign=middle;whiteSpace=wrap;rounded=0;fontSize=16;" parent="MWATgh_TcSmmH0ezRNN8-1" vertex="1">
          <mxGeometry x="30.5" y="496" width="81" height="40" as="geometry" />
        </mxCell>
        <mxCell id="yLiQb6hiJFcwv4kmprrE-14" value="" style="endArrow=classic;html=1;rounded=0;fontSize=12;startSize=8;endSize=8;curved=1;exitX=0.5;exitY=1;exitDx=0;exitDy=0;entryX=0.5;entryY=0;entryDx=0;entryDy=0;startArrow=none;startFill=0;endFill=1;" parent="MWATgh_TcSmmH0ezRNN8-1" source="yLiQb6hiJFcwv4kmprrE-3" target="yLiQb6hiJFcwv4kmprrE-5" edge="1">
          <mxGeometry width="50" height="50" relative="1" as="geometry">
            <mxPoint x="141" y="170" as="sourcePoint" />
            <mxPoint x="381" y="300" as="targetPoint" />
          </mxGeometry>
        </mxCell>
        <mxCell id="yLiQb6hiJFcwv4kmprrE-15" value="" style="endArrow=classic;html=1;rounded=0;fontSize=12;startSize=8;endSize=8;curved=1;exitX=0.5;exitY=1;exitDx=0;exitDy=0;endFill=1;" parent="MWATgh_TcSmmH0ezRNN8-1" source="yLiQb6hiJFcwv4kmprrE-5" edge="1">
          <mxGeometry width="50" height="50" relative="1" as="geometry">
            <mxPoint x="21" y="368" as="sourcePoint" />
            <mxPoint x="71" y="278" as="targetPoint" />
          </mxGeometry>
        </mxCell>
        <mxCell id="yLiQb6hiJFcwv4kmprrE-16" value="" style="endArrow=none;html=1;rounded=0;fontSize=12;startSize=8;endSize=8;curved=1;entryX=0.5;entryY=1;entryDx=0;entryDy=0;exitX=0.5;exitY=0;exitDx=0;exitDy=0;endFill=0;startArrow=classic;startFill=1;" parent="MWATgh_TcSmmH0ezRNN8-1" source="yLiQb6hiJFcwv4kmprrE-10" target="yLiQb6hiJFcwv4kmprrE-8" edge="1">
          <mxGeometry width="50" height="50" relative="1" as="geometry">
            <mxPoint x="21" y="368" as="sourcePoint" />
            <mxPoint x="71" y="318" as="targetPoint" />
          </mxGeometry>
        </mxCell>
        <mxCell id="yLiQb6hiJFcwv4kmprrE-17" value="" style="endArrow=none;html=1;rounded=0;fontSize=12;startSize=8;endSize=8;curved=1;entryX=0.5;entryY=1;entryDx=0;entryDy=0;exitX=0.5;exitY=0;exitDx=0;exitDy=0;endFill=0;startArrow=classic;startFill=1;" parent="MWATgh_TcSmmH0ezRNN8-1" source="yLiQb6hiJFcwv4kmprrE-12" target="yLiQb6hiJFcwv4kmprrE-10" edge="1">
          <mxGeometry width="50" height="50" relative="1" as="geometry">
            <mxPoint x="151" y="818" as="sourcePoint" />
            <mxPoint x="381" y="508" as="targetPoint" />
          </mxGeometry>
        </mxCell>
      </root>
    </mxGraphModel>
  </diagram>
  <diagram name="AR" id="2SkolTsI-9Kw7vFQi_aE">
    <mxGraphModel dx="1768" dy="1029" grid="0" gridSize="10" guides="1" tooltips="1" connect="1" arrows="1" fold="1" page="1" pageScale="1" pageWidth="827" pageHeight="1169" math="0" shadow="0">
      <root>
        <mxCell id="0" />
        <mxCell id="1" parent="0" />
        <mxCell id="UM_JRLBAvqW4pIphLiRH-1" value="&lt;font style=&quot;color: light-dark(rgb(0, 0, 0), rgb(255, 255, 255));&quot;&gt;Logistik - AR&lt;/font&gt;" style="text;strokeColor=none;fillColor=none;html=1;fontSize=24;fontStyle=1;verticalAlign=middle;align=center;" parent="1" vertex="1">
          <mxGeometry x="339" y="238" width="170" height="40" as="geometry" />
        </mxCell>
        <mxCell id="UM_JRLBAvqW4pIphLiRH-3" value="" style="rounded=0;whiteSpace=wrap;html=1;" parent="1" vertex="1">
          <mxGeometry x="349" y="298" width="120" height="60" as="geometry" />
        </mxCell>
        <mxCell id="UM_JRLBAvqW4pIphLiRH-4" value="Start" style="text;strokeColor=none;fillColor=none;html=1;align=center;verticalAlign=middle;whiteSpace=wrap;rounded=0;fontSize=16;" parent="1" vertex="1">
          <mxGeometry x="368" y="310.5" width="85" height="35" as="geometry" />
        </mxCell>
        <mxCell id="UM_JRLBAvqW4pIphLiRH-5" value="" style="rounded=0;whiteSpace=wrap;html=1;" parent="1" vertex="1">
          <mxGeometry x="350.5" y="428" width="120" height="60" as="geometry" />
        </mxCell>
        <mxCell id="UM_JRLBAvqW4pIphLiRH-6" value="Start&lt;div&gt;Posteingang&lt;/div&gt;" style="text;html=1;whiteSpace=wrap;strokeColor=none;fillColor=none;align=center;verticalAlign=middle;rounded=0;" parent="1" vertex="1">
          <mxGeometry x="381.5" y="443" width="60" height="30" as="geometry" />
        </mxCell>
        <mxCell id="UM_JRLBAvqW4pIphLiRH-8" value="" style="rounded=0;whiteSpace=wrap;html=1;" parent="1" vertex="1">
          <mxGeometry x="350.5" y="528" width="120" height="60" as="geometry" />
        </mxCell>
        <mxCell id="UM_JRLBAvqW4pIphLiRH-9" value="Ausgangs-rechnung" style="text;html=1;whiteSpace=wrap;strokeColor=none;fillColor=none;align=center;verticalAlign=middle;rounded=0;" parent="1" vertex="1">
          <mxGeometry x="365" y="543" width="91" height="30" as="geometry" />
        </mxCell>
        <mxCell id="UM_JRLBAvqW4pIphLiRH-10" value="" style="rounded=0;whiteSpace=wrap;html=1;" parent="1" vertex="1">
          <mxGeometry x="350.5" y="628" width="120" height="60" as="geometry" />
        </mxCell>
        <mxCell id="UM_JRLBAvqW4pIphLiRH-11" value="AR&lt;div&gt;bewerten&lt;/div&gt;" style="text;html=1;whiteSpace=wrap;strokeColor=none;fillColor=none;align=center;verticalAlign=middle;rounded=0;" parent="1" vertex="1">
          <mxGeometry x="380.5" y="643" width="60" height="30" as="geometry" />
        </mxCell>
        <mxCell id="UM_JRLBAvqW4pIphLiRH-12" value="" style="rounded=0;whiteSpace=wrap;html=1;" parent="1" vertex="1">
          <mxGeometry x="349" y="758" width="120" height="60" as="geometry" />
        </mxCell>
        <mxCell id="UM_JRLBAvqW4pIphLiRH-13" value="Ende" style="text;strokeColor=none;fillColor=none;html=1;align=center;verticalAlign=middle;whiteSpace=wrap;rounded=0;fontSize=16;" parent="1" vertex="1">
          <mxGeometry x="368.5" y="768" width="81" height="40" as="geometry" />
        </mxCell>
        <mxCell id="UM_JRLBAvqW4pIphLiRH-14" value="" style="endArrow=none;html=1;rounded=0;fontSize=12;startSize=8;endSize=8;curved=1;exitX=0.5;exitY=1;exitDx=0;exitDy=0;entryX=0.5;entryY=0;entryDx=0;entryDy=0;strokeColor=light-dark(#000000,#FFFFFF);" parent="1" source="UM_JRLBAvqW4pIphLiRH-3" target="UM_JRLBAvqW4pIphLiRH-5" edge="1">
          <mxGeometry width="50" height="50" relative="1" as="geometry">
            <mxPoint x="433" y="482" as="sourcePoint" />
            <mxPoint x="673" y="612" as="targetPoint" />
          </mxGeometry>
        </mxCell>
        <mxCell id="UM_JRLBAvqW4pIphLiRH-15" value="" style="endArrow=none;html=1;rounded=0;fontSize=12;startSize=8;endSize=8;curved=1;exitX=0.5;exitY=1;exitDx=0;exitDy=0;strokeColor=light-dark(#000000,#FFFFFF);" parent="1" source="UM_JRLBAvqW4pIphLiRH-5" edge="1">
          <mxGeometry width="50" height="50" relative="1" as="geometry">
            <mxPoint x="360.5" y="618" as="sourcePoint" />
            <mxPoint x="410.5" y="528" as="targetPoint" />
          </mxGeometry>
        </mxCell>
        <mxCell id="UM_JRLBAvqW4pIphLiRH-16" value="" style="endArrow=none;html=1;rounded=0;fontSize=12;startSize=8;endSize=8;curved=1;entryX=0.5;entryY=1;entryDx=0;entryDy=0;exitX=0.5;exitY=0;exitDx=0;exitDy=0;strokeColor=light-dark(#000000,#FFFFFF);" parent="1" source="UM_JRLBAvqW4pIphLiRH-10" target="UM_JRLBAvqW4pIphLiRH-8" edge="1">
          <mxGeometry width="50" height="50" relative="1" as="geometry">
            <mxPoint x="360.5" y="618" as="sourcePoint" />
            <mxPoint x="410.5" y="568" as="targetPoint" />
          </mxGeometry>
        </mxCell>
        <mxCell id="UM_JRLBAvqW4pIphLiRH-17" value="" style="endArrow=none;html=1;rounded=0;fontSize=12;startSize=8;endSize=8;curved=1;entryX=0.492;entryY=1.005;entryDx=0;entryDy=0;exitX=0.509;exitY=0.002;exitDx=0;exitDy=0;strokeColor=light-dark(#000000,#FFFFFF);entryPerimeter=0;exitPerimeter=0;" parent="1" source="UM_JRLBAvqW4pIphLiRH-12" target="UM_JRLBAvqW4pIphLiRH-10" edge="1">
          <mxGeometry width="50" height="50" relative="1" as="geometry">
            <mxPoint x="369" y="1238" as="sourcePoint" />
            <mxPoint x="673" y="912" as="targetPoint" />
          </mxGeometry>
        </mxCell>
        <mxCell id="qVULgFt82JHXuUKUmkr9-1" value="&lt;font style=&quot;font-size: 16px;&quot;&gt;Abkürzungen&lt;/font&gt;" style="text;strokeColor=none;fillColor=none;html=1;fontSize=24;fontStyle=1;verticalAlign=middle;align=center;" vertex="1" parent="1">
          <mxGeometry x="614" y="962" width="100" height="40" as="geometry" />
        </mxCell>
        <mxCell id="qVULgFt82JHXuUKUmkr9-2" value="AR:&amp;nbsp;Ausgangsrechnung" style="text;html=1;whiteSpace=wrap;strokeColor=none;fillColor=none;align=left;verticalAlign=middle;rounded=0;" vertex="1" parent="1">
          <mxGeometry x="610" y="997" width="110" height="30" as="geometry" />
        </mxCell>
      </root>
    </mxGraphModel>
  </diagram>
  <diagram id="uvvblA5y8ezlBeoHnSU9" name="ER">
    <mxGraphModel dx="3332" dy="2627" grid="0" gridSize="10" guides="1" tooltips="1" connect="1" arrows="1" fold="1" page="1" pageScale="1" pageWidth="827" pageHeight="1169" math="0" shadow="0">
      <root>
        <mxCell id="0" />
        <mxCell id="1" parent="0" />
        <mxCell id="tKobCOCbCkRdlAfZfkbZ-1" value="" style="group" vertex="1" connectable="0" parent="1">
          <mxGeometry x="-776" y="-1094" width="725" height="1019" as="geometry" />
        </mxCell>
        <mxCell id="aZi2uq9hpaF_tOqr28Th-2" value="" style="rounded=0;whiteSpace=wrap;html=1;" parent="tKobCOCbCkRdlAfZfkbZ-1" vertex="1">
          <mxGeometry x="312.38767395626246" y="49.306451612903224" width="84.81113320079524" height="49.306451612903224" as="geometry" />
        </mxCell>
        <mxCell id="aZi2uq9hpaF_tOqr28Th-3" value="Start" style="text;strokeColor=none;fillColor=none;html=1;align=center;verticalAlign=middle;whiteSpace=wrap;rounded=0;fontSize=16;" parent="tKobCOCbCkRdlAfZfkbZ-1" vertex="1">
          <mxGeometry x="325.81610337972165" y="59.57862903225807" width="60.07455268389661" height="28.762096774193548" as="geometry" />
        </mxCell>
        <mxCell id="aZi2uq9hpaF_tOqr28Th-4" value="" style="endArrow=classic;html=1;rounded=0;fontSize=12;curved=1;exitX=0.5;exitY=1;exitDx=0;exitDy=0;strokeColor=default;entryX=0.5;entryY=0;entryDx=0;entryDy=0;endFill=1;" parent="tKobCOCbCkRdlAfZfkbZ-1" source="aZi2uq9hpaF_tOqr28Th-2" target="dgUElhm0Rdnca0rxl3GX-1" edge="1">
          <mxGeometry width="50" height="50" relative="1" as="geometry">
            <mxPoint x="371.75546719681904" y="200.51290322580644" as="sourcePoint" />
            <mxPoint x="354.79324055666" y="169.28548387096774" as="targetPoint" />
          </mxGeometry>
        </mxCell>
        <mxCell id="aZi2uq9hpaF_tOqr28Th-5" value="&lt;font style=&quot;font-size: 14px;&quot;&gt;ER:&amp;nbsp;&lt;font&gt;Eingangssrechnung&lt;/font&gt;&lt;/font&gt;" style="text;html=1;whiteSpace=wrap;strokeColor=none;fillColor=none;align=center;verticalAlign=middle;rounded=0;" parent="tKobCOCbCkRdlAfZfkbZ-1" vertex="1">
          <mxGeometry x="574" y="958" width="139.8" height="33.45" as="geometry" />
        </mxCell>
        <mxCell id="dgUElhm0Rdnca0rxl3GX-1" value="" style="rounded=0;whiteSpace=wrap;html=1;" parent="tKobCOCbCkRdlAfZfkbZ-1" vertex="1">
          <mxGeometry x="313.44781312127236" y="176.6814516129032" width="84.81113320079524" height="49.306451612903224" as="geometry" />
        </mxCell>
        <mxCell id="dgUElhm0Rdnca0rxl3GX-2" value="Verteilung" style="text;html=1;whiteSpace=wrap;strokeColor=none;fillColor=none;align=center;verticalAlign=middle;rounded=0;" parent="tKobCOCbCkRdlAfZfkbZ-1" vertex="1">
          <mxGeometry x="335.3573558648111" y="189.00806451612905" width="42.40556660039762" height="24.653225806451612" as="geometry" />
        </mxCell>
        <mxCell id="dgUElhm0Rdnca0rxl3GX-3" value="" style="rounded=0;whiteSpace=wrap;html=1;" parent="tKobCOCbCkRdlAfZfkbZ-1" vertex="1">
          <mxGeometry x="302.493041749503" y="276.1161290322581" width="106.720675944334" height="49.306451612903224" as="geometry" />
        </mxCell>
        <mxCell id="dgUElhm0Rdnca0rxl3GX-4" value="&lt;div&gt;Prüfung&lt;/div&gt;&lt;div&gt;Niederlassungsleiter&lt;/div&gt;" style="text;html=1;whiteSpace=wrap;strokeColor=none;fillColor=none;align=center;verticalAlign=middle;rounded=0;" parent="tKobCOCbCkRdlAfZfkbZ-1" vertex="1">
          <mxGeometry x="332.1769383697813" y="288.44274193548387" width="42.40556660039762" height="24.653225806451612" as="geometry" />
        </mxCell>
        <mxCell id="dgUElhm0Rdnca0rxl3GX-5" value="" style="endArrow=none;html=1;rounded=0;fontSize=12;startSize=8;endSize=8;curved=1;entryX=0.5;entryY=1;entryDx=0;entryDy=0;exitX=0.5;exitY=0;exitDx=0;exitDy=0;startArrow=classic;startFill=1;" parent="tKobCOCbCkRdlAfZfkbZ-1" source="dgUElhm0Rdnca0rxl3GX-3" target="dgUElhm0Rdnca0rxl3GX-1" edge="1">
          <mxGeometry width="50" height="50" relative="1" as="geometry">
            <mxPoint x="412.0407554671968" y="233.38387096774193" as="sourcePoint" />
            <mxPoint x="447.37872763419483" y="192.29516129032257" as="targetPoint" />
          </mxGeometry>
        </mxCell>
        <mxCell id="dgUElhm0Rdnca0rxl3GX-16" style="edgeStyle=none;curved=1;rounded=0;orthogonalLoop=1;jettySize=auto;html=1;exitX=1;exitY=0.5;exitDx=0;exitDy=0;fontSize=12;startSize=8;endSize=8;startArrow=classic;startFill=1;" parent="tKobCOCbCkRdlAfZfkbZ-1" source="dgUElhm0Rdnca0rxl3GX-6" edge="1">
          <mxGeometry relative="1" as="geometry">
            <mxPoint x="603.9966030234607" y="300.76935483870966" as="targetPoint" />
          </mxGeometry>
        </mxCell>
        <mxCell id="dgUElhm0Rdnca0rxl3GX-6" value="" style="rounded=0;whiteSpace=wrap;html=1;" parent="tKobCOCbCkRdlAfZfkbZ-1" vertex="1">
          <mxGeometry x="453.73956262425446" y="276.1161290322581" width="106.720675944334" height="49.306451612903224" as="geometry" />
        </mxCell>
        <mxCell id="dgUElhm0Rdnca0rxl3GX-7" value="&lt;div&gt;Prüfung&lt;/div&gt;&lt;div&gt;Projektleiter&lt;/div&gt;" style="text;html=1;whiteSpace=wrap;strokeColor=none;fillColor=none;align=center;verticalAlign=middle;rounded=0;" parent="tKobCOCbCkRdlAfZfkbZ-1" vertex="1">
          <mxGeometry x="483.4234592445328" y="288.44274193548387" width="42.40556660039762" height="24.653225806451612" as="geometry" />
        </mxCell>
        <mxCell id="dgUElhm0Rdnca0rxl3GX-19" style="edgeStyle=none;curved=1;rounded=0;orthogonalLoop=1;jettySize=auto;html=1;exitX=0.5;exitY=1;exitDx=0;exitDy=0;entryX=0.5;entryY=0;entryDx=0;entryDy=0;fontSize=12;startSize=8;endSize=8;" parent="tKobCOCbCkRdlAfZfkbZ-1" source="dgUElhm0Rdnca0rxl3GX-8" target="dgUElhm0Rdnca0rxl3GX-10" edge="1">
          <mxGeometry relative="1" as="geometry" />
        </mxCell>
        <mxCell id="dgUElhm0Rdnca0rxl3GX-8" value="" style="rounded=0;whiteSpace=wrap;html=1;" parent="tKobCOCbCkRdlAfZfkbZ-1" vertex="1">
          <mxGeometry x="165.38170974155068" y="382.9467741935484" width="106.720675944334" height="49.306451612903224" as="geometry" />
        </mxCell>
        <mxCell id="dgUElhm0Rdnca0rxl3GX-9" value="&lt;div&gt;Prüfung&lt;/div&gt;&lt;div&gt;Kaufmann&lt;/div&gt;" style="text;html=1;whiteSpace=wrap;strokeColor=none;fillColor=none;align=center;verticalAlign=middle;rounded=0;" parent="tKobCOCbCkRdlAfZfkbZ-1" vertex="1">
          <mxGeometry x="195.06560636182903" y="395.2733870967742" width="42.40556660039762" height="24.653225806451612" as="geometry" />
        </mxCell>
        <mxCell id="dgUElhm0Rdnca0rxl3GX-10" value="" style="rounded=0;whiteSpace=wrap;html=1;" parent="tKobCOCbCkRdlAfZfkbZ-1" vertex="1">
          <mxGeometry x="85.51789264413519" y="508.6782258064517" width="106.720675944334" height="49.306451612903224" as="geometry" />
        </mxCell>
        <mxCell id="dgUElhm0Rdnca0rxl3GX-11" value="&lt;div&gt;Prüfung&lt;/div&gt;&lt;div&gt;Geschäftsführer&lt;/div&gt;" style="text;html=1;whiteSpace=wrap;strokeColor=none;fillColor=none;align=center;verticalAlign=middle;rounded=0;" parent="tKobCOCbCkRdlAfZfkbZ-1" vertex="1">
          <mxGeometry x="115.20178926441353" y="521.0048387096774" width="60.07455268389661" height="24.653225806451612" as="geometry" />
        </mxCell>
        <mxCell id="dgUElhm0Rdnca0rxl3GX-12" value="" style="rounded=0;whiteSpace=wrap;html=1;" parent="tKobCOCbCkRdlAfZfkbZ-1" vertex="1">
          <mxGeometry x="604.2793240556659" y="274.4725806451613" width="106.720675944334" height="49.306451612903224" as="geometry" />
        </mxCell>
        <mxCell id="dgUElhm0Rdnca0rxl3GX-13" value="&lt;div&gt;Prüfung&lt;/div&gt;&lt;div&gt;Einkauf&lt;/div&gt;" style="text;html=1;whiteSpace=wrap;strokeColor=none;fillColor=none;align=center;verticalAlign=middle;rounded=0;" parent="tKobCOCbCkRdlAfZfkbZ-1" vertex="1">
          <mxGeometry x="633.9632206759443" y="286.7991935483871" width="42.40556660039762" height="24.653225806451612" as="geometry" />
        </mxCell>
        <mxCell id="dgUElhm0Rdnca0rxl3GX-14" value="" style="endArrow=classic;startArrow=classic;html=1;rounded=0;fontSize=12;startSize=8;endSize=8;curved=1;entryX=0;entryY=0.5;entryDx=0;entryDy=0;exitX=1;exitY=0.5;exitDx=0;exitDy=0;" parent="tKobCOCbCkRdlAfZfkbZ-1" source="dgUElhm0Rdnca0rxl3GX-3" target="dgUElhm0Rdnca0rxl3GX-6" edge="1">
          <mxGeometry width="50" height="50" relative="1" as="geometry">
            <mxPoint x="412.0407554671968" y="310.6306451612903" as="sourcePoint" />
            <mxPoint x="447.37872763419483" y="269.541935483871" as="targetPoint" />
          </mxGeometry>
        </mxCell>
        <mxCell id="dgUElhm0Rdnca0rxl3GX-17" value="" style="endArrow=classic;html=1;rounded=0;fontSize=12;startSize=8;endSize=8;curved=1;entryX=0.5;entryY=0;entryDx=0;entryDy=0;exitX=0;exitY=0.5;exitDx=0;exitDy=0;" parent="tKobCOCbCkRdlAfZfkbZ-1" source="dgUElhm0Rdnca0rxl3GX-3" target="dgUElhm0Rdnca0rxl3GX-8" edge="1">
          <mxGeometry width="50" height="50" relative="1" as="geometry">
            <mxPoint x="203.54671968190854" y="304.8782258064516" as="sourcePoint" />
            <mxPoint x="238.88469184890658" y="263.7895161290322" as="targetPoint" />
          </mxGeometry>
        </mxCell>
        <mxCell id="dgUElhm0Rdnca0rxl3GX-20" style="edgeStyle=none;curved=1;rounded=0;orthogonalLoop=1;jettySize=auto;html=1;exitX=0.5;exitY=1;exitDx=0;exitDy=0;entryX=0.5;entryY=0;entryDx=0;entryDy=0;fontSize=12;startSize=8;endSize=8;" parent="tKobCOCbCkRdlAfZfkbZ-1" source="dgUElhm0Rdnca0rxl3GX-10" target="dgUElhm0Rdnca0rxl3GX-21" edge="1">
          <mxGeometry relative="1" as="geometry">
            <mxPoint x="133.57753479125248" y="565.3806451612903" as="sourcePoint" />
          </mxGeometry>
        </mxCell>
        <mxCell id="dgUElhm0Rdnca0rxl3GX-21" value="" style="rounded=0;whiteSpace=wrap;html=1;" parent="tKobCOCbCkRdlAfZfkbZ-1" vertex="1">
          <mxGeometry y="641.8056451612903" width="106.720675944334" height="49.306451612903224" as="geometry" />
        </mxCell>
        <mxCell id="dgUElhm0Rdnca0rxl3GX-22" value="Bewertung" style="text;html=1;whiteSpace=wrap;strokeColor=none;fillColor=none;align=center;verticalAlign=middle;rounded=0;" parent="tKobCOCbCkRdlAfZfkbZ-1" vertex="1">
          <mxGeometry x="29.68389662027833" y="654.1322580645161" width="42.40556660039762" height="24.653225806451612" as="geometry" />
        </mxCell>
        <mxCell id="dgUElhm0Rdnca0rxl3GX-23" value="" style="rounded=0;whiteSpace=wrap;html=1;" parent="tKobCOCbCkRdlAfZfkbZ-1" vertex="1">
          <mxGeometry x="99.65308151093438" y="745.3491935483871" width="106.720675944334" height="49.306451612903224" as="geometry" />
        </mxCell>
        <mxCell id="dgUElhm0Rdnca0rxl3GX-24" value="Buchung" style="text;html=1;whiteSpace=wrap;strokeColor=none;fillColor=none;align=center;verticalAlign=middle;rounded=0;" parent="tKobCOCbCkRdlAfZfkbZ-1" vertex="1">
          <mxGeometry x="129.33697813121273" y="757.675806451613" width="42.40556660039762" height="24.653225806451612" as="geometry" />
        </mxCell>
        <mxCell id="dgUElhm0Rdnca0rxl3GX-25" value="" style="rounded=0;whiteSpace=wrap;html=1;" parent="tKobCOCbCkRdlAfZfkbZ-1" vertex="1">
          <mxGeometry x="212.73459244532802" y="848.0709677419355" width="106.720675944334" height="49.306451612903224" as="geometry" />
        </mxCell>
        <mxCell id="dgUElhm0Rdnca0rxl3GX-26" value="Bezahlung" style="text;html=1;whiteSpace=wrap;strokeColor=none;fillColor=none;align=center;verticalAlign=middle;rounded=0;" parent="tKobCOCbCkRdlAfZfkbZ-1" vertex="1">
          <mxGeometry x="242.41848906560634" y="860.3975806451613" width="42.40556660039762" height="24.653225806451612" as="geometry" />
        </mxCell>
        <mxCell id="dgUElhm0Rdnca0rxl3GX-27" value="" style="endArrow=classic;html=1;rounded=0;fontSize=12;startSize=8;endSize=8;curved=1;exitX=0.5;exitY=1;exitDx=0;exitDy=0;entryX=0.5;entryY=0;entryDx=0;entryDy=0;" parent="tKobCOCbCkRdlAfZfkbZ-1" source="dgUElhm0Rdnca0rxl3GX-21" target="dgUElhm0Rdnca0rxl3GX-23" edge="1">
          <mxGeometry width="50" height="50" relative="1" as="geometry">
            <mxPoint x="390.13121272365805" y="622.0830645161291" as="sourcePoint" />
            <mxPoint x="425.46918489065604" y="580.9943548387097" as="targetPoint" />
          </mxGeometry>
        </mxCell>
        <mxCell id="dgUElhm0Rdnca0rxl3GX-28" value="" style="endArrow=classic;html=1;rounded=0;fontSize=12;startSize=8;endSize=8;curved=1;exitX=0.5;exitY=1;exitDx=0;exitDy=0;entryX=0.5;entryY=0;entryDx=0;entryDy=0;" parent="tKobCOCbCkRdlAfZfkbZ-1" source="dgUElhm0Rdnca0rxl3GX-23" target="dgUElhm0Rdnca0rxl3GX-25" edge="1">
          <mxGeometry width="50" height="50" relative="1" as="geometry">
            <mxPoint x="390.13121272365805" y="622.0830645161291" as="sourcePoint" />
            <mxPoint x="425.46918489065604" y="580.9943548387097" as="targetPoint" />
          </mxGeometry>
        </mxCell>
        <mxCell id="dgUElhm0Rdnca0rxl3GX-29" value="" style="rounded=0;whiteSpace=wrap;html=1;" parent="tKobCOCbCkRdlAfZfkbZ-1" vertex="1">
          <mxGeometry x="332.1769383697813" y="969.6935483870968" width="84.81113320079524" height="49.306451612903224" as="geometry" />
        </mxCell>
        <mxCell id="dgUElhm0Rdnca0rxl3GX-30" value="Ende" style="text;strokeColor=none;fillColor=none;html=1;align=center;verticalAlign=middle;whiteSpace=wrap;rounded=0;fontSize=16;" parent="tKobCOCbCkRdlAfZfkbZ-1" vertex="1">
          <mxGeometry x="345.60536779324053" y="979.9657258064516" width="60.07455268389661" height="28.762096774193548" as="geometry" />
        </mxCell>
        <mxCell id="dgUElhm0Rdnca0rxl3GX-31" value="" style="endArrow=classic;html=1;rounded=0;fontSize=12;startSize=8;endSize=8;curved=1;exitX=0.5;exitY=1;exitDx=0;exitDy=0;entryX=0.5;entryY=0;entryDx=0;entryDy=0;" parent="tKobCOCbCkRdlAfZfkbZ-1" source="dgUElhm0Rdnca0rxl3GX-25" target="dgUElhm0Rdnca0rxl3GX-29" edge="1">
          <mxGeometry width="50" height="50" relative="1" as="geometry">
            <mxPoint x="409.213717693837" y="490.59919354838706" as="sourcePoint" />
            <mxPoint x="444.551689860835" y="449.51048387096773" as="targetPoint" />
          </mxGeometry>
        </mxCell>
        <mxCell id="dgUElhm0Rdnca0rxl3GX-32" value="" style="endArrow=classic;html=1;rounded=0;fontSize=12;startSize=8;endSize=8;curved=1;exitX=0.5;exitY=1;exitDx=0;exitDy=0;entryX=0.75;entryY=0;entryDx=0;entryDy=0;" parent="tKobCOCbCkRdlAfZfkbZ-1" source="dgUElhm0Rdnca0rxl3GX-12" target="dgUElhm0Rdnca0rxl3GX-29" edge="1">
          <mxGeometry width="50" height="50" relative="1" as="geometry">
            <mxPoint x="409.213717693837" y="490.59919354838706" as="sourcePoint" />
            <mxPoint x="444.551689860835" y="449.51048387096773" as="targetPoint" />
          </mxGeometry>
        </mxCell>
        <mxCell id="tKobCOCbCkRdlAfZfkbZ-2" value="&lt;b&gt;&lt;font style=&quot;font-size: 16px;&quot;&gt;Abkürzungen&lt;/font&gt;&lt;/b&gt;" style="text;html=1;whiteSpace=wrap;strokeColor=none;fillColor=none;align=center;verticalAlign=middle;rounded=0;" vertex="1" parent="tKobCOCbCkRdlAfZfkbZ-1">
          <mxGeometry x="589" y="928" width="60" height="30" as="geometry" />
        </mxCell>
        <mxCell id="aZi2uq9hpaF_tOqr28Th-1" value="&lt;font style=&quot;color: light-dark(rgb(0, 0, 0), rgb(255, 255, 255));&quot;&gt;Logistik - ER&lt;/font&gt;" style="text;strokeColor=none;fillColor=none;html=1;fontSize=24;fontStyle=1;verticalAlign=middle;align=center;" parent="1" vertex="1">
          <mxGeometry x="-473.5062226640159" y="-1121" width="120.14910536779323" height="32.87096774193548" as="geometry" />
        </mxCell>
      </root>
    </mxGraphModel>
  </diagram>
  <diagram id="rn1h6AZsiH9bbI_vgzI5" name="Urlaubsantrag">
    <mxGraphModel dx="3085" dy="2002" grid="0" gridSize="10" guides="1" tooltips="1" connect="1" arrows="1" fold="1" page="1" pageScale="1" pageWidth="827" pageHeight="1169" math="0" shadow="0">
      <root>
        <mxCell id="0" />
        <mxCell id="1" parent="0" />
        <mxCell id="7yEIGEtBi3AWSk1SGbxe-1" value="" style="group" vertex="1" connectable="0" parent="1">
          <mxGeometry x="-1627" y="-1097" width="780" height="1021" as="geometry" />
        </mxCell>
        <mxCell id="L2rpCsR7YNw7a-sSnQmr-1" value="Urlaubsantrag" style="text;strokeColor=none;fillColor=none;html=1;fontSize=24;fontStyle=1;verticalAlign=middle;align=center;" vertex="1" parent="7yEIGEtBi3AWSk1SGbxe-1">
          <mxGeometry x="325.36640360766626" width="149.49267192784666" height="49.14560770156438" as="geometry" />
        </mxCell>
        <mxCell id="Q46s9NlQKa3on4DsxL5b-1" value="" style="rounded=0;whiteSpace=wrap;html=1;" vertex="1" parent="7yEIGEtBi3AWSk1SGbxe-1">
          <mxGeometry x="340.31567080045096" y="88.46209386281589" width="105.52423900789177" height="73.71841155234657" as="geometry" />
        </mxCell>
        <mxCell id="Q46s9NlQKa3on4DsxL5b-2" value="Start" style="text;strokeColor=none;fillColor=none;html=1;align=center;verticalAlign=middle;whiteSpace=wrap;rounded=0;fontSize=16;" vertex="1" parent="7yEIGEtBi3AWSk1SGbxe-1">
          <mxGeometry x="357.0236753100338" y="103.82009626955475" width="74.74633596392333" height="43.002406738868835" as="geometry" />
        </mxCell>
        <mxCell id="5X7jETQ8mcZh8sV44qmX-1" value="" style="rounded=0;whiteSpace=wrap;html=1;" vertex="1" parent="7yEIGEtBi3AWSk1SGbxe-1">
          <mxGeometry x="348.01014656144304" y="234.67027677496992" width="92.77339346110485" height="77.4043321299639" as="geometry" />
        </mxCell>
        <mxCell id="5X7jETQ8mcZh8sV44qmX-2" value="Erfassung" style="text;html=1;whiteSpace=wrap;strokeColor=none;fillColor=none;align=center;verticalAlign=middle;rounded=0;" vertex="1" parent="7yEIGEtBi3AWSk1SGbxe-1">
          <mxGeometry x="366.91657271702366" y="254.32851985559566" width="54.96054114994363" height="35.63056558363417" as="geometry" />
        </mxCell>
        <mxCell id="5X7jETQ8mcZh8sV44qmX-4" value="" style="rounded=0;whiteSpace=wrap;html=1;" vertex="1" parent="7yEIGEtBi3AWSk1SGbxe-1">
          <mxGeometry x="204.89289740698985" y="368.59205776173286" width="92.77339346110485" height="77.4043321299639" as="geometry" />
        </mxCell>
        <mxCell id="5X7jETQ8mcZh8sV44qmX-5" value="&lt;div&gt;Überprüfung&lt;/div&gt;&lt;div&gt;durch Vertreter&lt;/div&gt;" style="text;html=1;whiteSpace=wrap;strokeColor=none;fillColor=none;align=center;verticalAlign=middle;rounded=0;" vertex="1" parent="7yEIGEtBi3AWSk1SGbxe-1">
          <mxGeometry x="223.79932356257046" y="388.2503008423586" width="53.20180383314543" height="38.087845968712394" as="geometry" />
        </mxCell>
        <mxCell id="5X7jETQ8mcZh8sV44qmX-6" value="" style="rounded=0;whiteSpace=wrap;html=1;" vertex="1" parent="7yEIGEtBi3AWSk1SGbxe-1">
          <mxGeometry x="35.174746335963924" y="511.1143200962696" width="144.21645997745208" height="79.86161251504211" as="geometry" />
        </mxCell>
        <mxCell id="5X7jETQ8mcZh8sV44qmX-7" value="&lt;div&gt;Überprüfung&lt;/div&gt;&lt;div&gt;durch Personalverantwortlicher&lt;/div&gt;" style="text;html=1;whiteSpace=wrap;strokeColor=none;fillColor=none;align=center;verticalAlign=middle;rounded=0;" vertex="1" parent="7yEIGEtBi3AWSk1SGbxe-1">
          <mxGeometry x="44.188275084554675" y="523.4007220216606" width="120.47350620067644" height="56.517448856799035" as="geometry" />
        </mxCell>
        <mxCell id="5X7jETQ8mcZh8sV44qmX-8" value="" style="rounded=0;whiteSpace=wrap;html=1;" vertex="1" parent="7yEIGEtBi3AWSk1SGbxe-1">
          <mxGeometry y="670.8375451263538" width="92.77339346110485" height="77.4043321299639" as="geometry" />
        </mxCell>
        <mxCell id="5X7jETQ8mcZh8sV44qmX-9" value="&lt;div&gt;Überprüfung&lt;/div&gt;&lt;div&gt;durch Leitung&lt;/div&gt;" style="text;html=1;whiteSpace=wrap;strokeColor=none;fillColor=none;align=center;verticalAlign=middle;rounded=0;" vertex="1" parent="7yEIGEtBi3AWSk1SGbxe-1">
          <mxGeometry x="18.906426155580608" y="690.4957882069796" width="53.20180383314543" height="38.087845968712394" as="geometry" />
        </mxCell>
        <mxCell id="5X7jETQ8mcZh8sV44qmX-10" value="" style="rounded=0;whiteSpace=wrap;html=1;" vertex="1" parent="7yEIGEtBi3AWSk1SGbxe-1">
          <mxGeometry x="133" y="762" width="122" height="83" as="geometry" />
        </mxCell>
        <mxCell id="5X7jETQ8mcZh8sV44qmX-11" value="&lt;div&gt;Überprüfung&lt;/div&gt;&lt;div&gt;durch Geschäftsführung&lt;/div&gt;" style="text;html=1;whiteSpace=wrap;strokeColor=none;fillColor=none;align=center;verticalAlign=middle;rounded=0;" vertex="1" parent="7yEIGEtBi3AWSk1SGbxe-1">
          <mxGeometry x="165.76099210822997" y="783.8724428399519" width="53.20180383314543" height="38.087845968712394" as="geometry" />
        </mxCell>
        <mxCell id="5X7jETQ8mcZh8sV44qmX-12" value="" style="rounded=0;whiteSpace=wrap;html=1;" vertex="1" parent="7yEIGEtBi3AWSk1SGbxe-1">
          <mxGeometry x="312" y="807" width="101" height="81" as="geometry" />
        </mxCell>
        <mxCell id="5X7jETQ8mcZh8sV44qmX-13" value="Fertigstellung" style="text;html=1;whiteSpace=wrap;strokeColor=none;fillColor=none;align=center;verticalAlign=middle;rounded=0;" vertex="1" parent="7yEIGEtBi3AWSk1SGbxe-1">
          <mxGeometry x="334.5997745208568" y="826.8748495788207" width="54.96054114994363" height="35.63056558363417" as="geometry" />
        </mxCell>
        <mxCell id="5X7jETQ8mcZh8sV44qmX-14" value="" style="rounded=0;whiteSpace=wrap;html=1;" vertex="1" parent="7yEIGEtBi3AWSk1SGbxe-1">
          <mxGeometry x="515.3100338218715" y="947.2815884476535" width="105.52423900789177" height="73.71841155234657" as="geometry" />
        </mxCell>
        <mxCell id="5X7jETQ8mcZh8sV44qmX-15" value="Ende" style="text;strokeColor=none;fillColor=none;html=1;align=center;verticalAlign=middle;whiteSpace=wrap;rounded=0;fontSize=16;" vertex="1" parent="7yEIGEtBi3AWSk1SGbxe-1">
          <mxGeometry x="532.0180383314544" y="962.6395908543923" width="74.74633596392333" height="43.002406738868835" as="geometry" />
        </mxCell>
        <mxCell id="5X7jETQ8mcZh8sV44qmX-16" value="" style="rounded=0;whiteSpace=wrap;html=1;" vertex="1" parent="7yEIGEtBi3AWSk1SGbxe-1">
          <mxGeometry x="547.8466741826381" y="329.2755716004813" width="92.77339346110485" height="77.4043321299639" as="geometry" />
        </mxCell>
        <mxCell id="5X7jETQ8mcZh8sV44qmX-17" value="&lt;div&gt;Überprüfung&lt;/div&gt;&lt;div&gt;durch Disposition&lt;/div&gt;" style="text;html=1;whiteSpace=wrap;strokeColor=none;fillColor=none;align=center;verticalAlign=middle;rounded=0;" vertex="1" parent="7yEIGEtBi3AWSk1SGbxe-1">
          <mxGeometry x="566.7531003382187" y="348.9338146811071" width="53.20180383314543" height="38.087845968712394" as="geometry" />
        </mxCell>
        <mxCell id="5X7jETQ8mcZh8sV44qmX-18" value="" style="rounded=0;whiteSpace=wrap;html=1;" vertex="1" parent="7yEIGEtBi3AWSk1SGbxe-1">
          <mxGeometry x="623.4723788049605" y="468.11191335740074" width="156.52762119503944" height="99.51985559566786" as="geometry" />
        </mxCell>
        <mxCell id="5X7jETQ8mcZh8sV44qmX-19" value="&lt;div&gt;Überprüfung&lt;/div&gt;&lt;div&gt;durch Personalverantwortlicher im Gewerbe&lt;/div&gt;" style="text;html=1;whiteSpace=wrap;strokeColor=none;fillColor=none;align=center;verticalAlign=middle;rounded=0;" vertex="1" parent="7yEIGEtBi3AWSk1SGbxe-1">
          <mxGeometry x="632.4859075535513" y="480.3983152827918" width="135.20293122886133" height="72.48977135980746" as="geometry" />
        </mxCell>
        <mxCell id="5X7jETQ8mcZh8sV44qmX-20" value="" style="rounded=0;whiteSpace=wrap;html=1;" vertex="1" parent="7yEIGEtBi3AWSk1SGbxe-1">
          <mxGeometry x="584.7801578354002" y="662.23706377858" width="140.6989853438557" height="100.74849578820698" as="geometry" />
        </mxCell>
        <mxCell id="5X7jETQ8mcZh8sV44qmX-21" value="&lt;div&gt;Überprüfung&lt;/div&gt;&lt;div&gt;durch Leitung im Gewerbe&lt;/div&gt;" style="text;html=1;whiteSpace=wrap;strokeColor=none;fillColor=none;align=center;verticalAlign=middle;rounded=0;" vertex="1" parent="7yEIGEtBi3AWSk1SGbxe-1">
          <mxGeometry x="603.6865839909808" y="681.8953068592058" width="105.96392333709132" height="63.8892900120337" as="geometry" />
        </mxCell>
        <mxCell id="5X7jETQ8mcZh8sV44qmX-22" value="" style="endArrow=classic;html=1;rounded=0;fontSize=12;startSize=8;endSize=8;curved=1;exitX=0.5;exitY=1;exitDx=0;exitDy=0;entryX=0.5;entryY=0;entryDx=0;entryDy=0;" edge="1" parent="7yEIGEtBi3AWSk1SGbxe-1" source="Q46s9NlQKa3on4DsxL5b-1" target="5X7jETQ8mcZh8sV44qmX-1">
          <mxGeometry width="50" height="50" relative="1" as="geometry">
            <mxPoint x="426.49379932356254" y="615.5487364620939" as="sourcePoint" />
            <mxPoint x="470.46223224351746" y="554.1167268351384" as="targetPoint" />
          </mxGeometry>
        </mxCell>
        <mxCell id="5X7jETQ8mcZh8sV44qmX-23" value="" style="endArrow=classic;html=1;rounded=0;fontSize=12;startSize=8;endSize=8;curved=1;exitX=0.5;exitY=1;exitDx=0;exitDy=0;entryX=0.5;entryY=0;entryDx=0;entryDy=0;" edge="1" parent="7yEIGEtBi3AWSk1SGbxe-1" source="5X7jETQ8mcZh8sV44qmX-1" target="5X7jETQ8mcZh8sV44qmX-4">
          <mxGeometry width="50" height="50" relative="1" as="geometry">
            <mxPoint x="426.49379932356254" y="615.5487364620939" as="sourcePoint" />
            <mxPoint x="470.46223224351746" y="554.1167268351384" as="targetPoint" />
          </mxGeometry>
        </mxCell>
        <mxCell id="5X7jETQ8mcZh8sV44qmX-24" value="" style="endArrow=classic;html=1;rounded=0;fontSize=12;startSize=8;endSize=8;curved=1;exitX=0.5;exitY=1;exitDx=0;exitDy=0;entryX=0.5;entryY=0;entryDx=0;entryDy=0;" edge="1" parent="7yEIGEtBi3AWSk1SGbxe-1" source="5X7jETQ8mcZh8sV44qmX-4" target="5X7jETQ8mcZh8sV44qmX-6">
          <mxGeometry width="50" height="50" relative="1" as="geometry">
            <mxPoint x="426.49379932356254" y="615.5487364620939" as="sourcePoint" />
            <mxPoint x="470.46223224351746" y="554.1167268351384" as="targetPoint" />
          </mxGeometry>
        </mxCell>
        <mxCell id="5X7jETQ8mcZh8sV44qmX-25" value="" style="endArrow=classic;html=1;rounded=0;fontSize=12;startSize=8;endSize=8;curved=1;exitX=0.5;exitY=1;exitDx=0;exitDy=0;entryX=0.5;entryY=0;entryDx=0;entryDy=0;" edge="1" parent="7yEIGEtBi3AWSk1SGbxe-1" source="5X7jETQ8mcZh8sV44qmX-6" target="5X7jETQ8mcZh8sV44qmX-8">
          <mxGeometry width="50" height="50" relative="1" as="geometry">
            <mxPoint x="426.49379932356254" y="615.5487364620939" as="sourcePoint" />
            <mxPoint x="470.46223224351746" y="554.1167268351384" as="targetPoint" />
          </mxGeometry>
        </mxCell>
        <mxCell id="5X7jETQ8mcZh8sV44qmX-26" value="" style="endArrow=classic;html=1;rounded=0;fontSize=12;startSize=8;endSize=8;curved=1;exitX=0.5;exitY=1;exitDx=0;exitDy=0;entryX=0;entryY=0.5;entryDx=0;entryDy=0;" edge="1" parent="7yEIGEtBi3AWSk1SGbxe-1" source="5X7jETQ8mcZh8sV44qmX-8" target="5X7jETQ8mcZh8sV44qmX-10">
          <mxGeometry width="50" height="50" relative="1" as="geometry">
            <mxPoint x="426.49379932356254" y="615.5487364620939" as="sourcePoint" />
            <mxPoint x="470.46223224351746" y="554.1167268351384" as="targetPoint" />
          </mxGeometry>
        </mxCell>
        <mxCell id="5X7jETQ8mcZh8sV44qmX-27" value="" style="endArrow=classic;html=1;rounded=0;fontSize=12;startSize=8;endSize=8;curved=1;exitX=1;exitY=0.5;exitDx=0;exitDy=0;entryX=0;entryY=0.5;entryDx=0;entryDy=0;" edge="1" parent="7yEIGEtBi3AWSk1SGbxe-1" source="5X7jETQ8mcZh8sV44qmX-10" target="5X7jETQ8mcZh8sV44qmX-12">
          <mxGeometry width="50" height="50" relative="1" as="geometry">
            <mxPoint x="426.49379932356254" y="615.5487364620939" as="sourcePoint" />
            <mxPoint x="470.46223224351746" y="554.1167268351384" as="targetPoint" />
          </mxGeometry>
        </mxCell>
        <mxCell id="5X7jETQ8mcZh8sV44qmX-28" value="" style="endArrow=classic;html=1;rounded=0;fontSize=12;startSize=8;endSize=8;curved=1;exitX=1;exitY=0.5;exitDx=0;exitDy=0;entryX=0;entryY=0.5;entryDx=0;entryDy=0;" edge="1" parent="7yEIGEtBi3AWSk1SGbxe-1" source="5X7jETQ8mcZh8sV44qmX-12" target="5X7jETQ8mcZh8sV44qmX-14">
          <mxGeometry width="50" height="50" relative="1" as="geometry">
            <mxPoint x="426.49379932356254" y="615.5487364620939" as="sourcePoint" />
            <mxPoint x="470.46223224351746" y="554.1167268351384" as="targetPoint" />
          </mxGeometry>
        </mxCell>
        <mxCell id="5X7jETQ8mcZh8sV44qmX-29" value="" style="endArrow=classic;html=1;rounded=0;fontSize=12;startSize=8;endSize=8;curved=1;exitX=1;exitY=0.5;exitDx=0;exitDy=0;entryX=0;entryY=0.5;entryDx=0;entryDy=0;" edge="1" parent="7yEIGEtBi3AWSk1SGbxe-1" source="5X7jETQ8mcZh8sV44qmX-1" target="5X7jETQ8mcZh8sV44qmX-16">
          <mxGeometry width="50" height="50" relative="1" as="geometry">
            <mxPoint x="426.49379932356254" y="615.5487364620939" as="sourcePoint" />
            <mxPoint x="470.46223224351746" y="554.1167268351384" as="targetPoint" />
          </mxGeometry>
        </mxCell>
        <mxCell id="5X7jETQ8mcZh8sV44qmX-30" value="" style="endArrow=classic;html=1;rounded=0;fontSize=12;startSize=8;endSize=8;curved=1;exitX=0.5;exitY=1;exitDx=0;exitDy=0;entryX=0.5;entryY=0;entryDx=0;entryDy=0;" edge="1" parent="7yEIGEtBi3AWSk1SGbxe-1" source="5X7jETQ8mcZh8sV44qmX-16" target="5X7jETQ8mcZh8sV44qmX-18">
          <mxGeometry width="50" height="50" relative="1" as="geometry">
            <mxPoint x="426.49379932356254" y="615.5487364620939" as="sourcePoint" />
            <mxPoint x="470.46223224351746" y="554.1167268351384" as="targetPoint" />
          </mxGeometry>
        </mxCell>
        <mxCell id="5X7jETQ8mcZh8sV44qmX-31" value="" style="endArrow=classic;html=1;rounded=0;fontSize=12;startSize=8;endSize=8;curved=1;exitX=0.5;exitY=1;exitDx=0;exitDy=0;entryX=0.458;entryY=0;entryDx=0;entryDy=0;entryPerimeter=0;" edge="1" parent="7yEIGEtBi3AWSk1SGbxe-1" source="5X7jETQ8mcZh8sV44qmX-18" target="5X7jETQ8mcZh8sV44qmX-20">
          <mxGeometry width="50" height="50" relative="1" as="geometry">
            <mxPoint x="426.49379932356254" y="615.5487364620939" as="sourcePoint" />
            <mxPoint x="470.46223224351746" y="554.1167268351384" as="targetPoint" />
          </mxGeometry>
        </mxCell>
        <mxCell id="5X7jETQ8mcZh8sV44qmX-32" value="" style="endArrow=classic;html=1;rounded=0;fontSize=12;startSize=8;endSize=8;curved=1;exitX=0.5;exitY=1;exitDx=0;exitDy=0;entryX=0.5;entryY=0;entryDx=0;entryDy=0;" edge="1" parent="7yEIGEtBi3AWSk1SGbxe-1" source="5X7jETQ8mcZh8sV44qmX-20" target="5X7jETQ8mcZh8sV44qmX-14">
          <mxGeometry width="50" height="50" relative="1" as="geometry">
            <mxPoint x="426.49379932356254" y="615.5487364620939" as="sourcePoint" />
            <mxPoint x="470.46223224351746" y="554.1167268351384" as="targetPoint" />
          </mxGeometry>
        </mxCell>
      </root>
    </mxGraphModel>
  </diagram>
  <diagram id="TcFZBzKJa4A93qlKzzEV" name="Transport">
    <mxGraphModel dx="2312" dy="2515" grid="0" gridSize="10" guides="1" tooltips="1" connect="1" arrows="1" fold="1" page="1" pageScale="1" pageWidth="827" pageHeight="1169" math="0" shadow="0">
      <root>
        <mxCell id="0" />
        <mxCell id="1" parent="0" />
        <mxCell id="VYweZS-9TX5ymFG4HJjU-1" value="" style="group" vertex="1" connectable="0" parent="1">
          <mxGeometry x="329" y="-1123" width="154.25" height="1058" as="geometry" />
        </mxCell>
        <mxCell id="vgA2S2cVZu3ADlu_zDUt-1" value="" style="rounded=0;whiteSpace=wrap;html=1;" vertex="1" parent="VYweZS-9TX5ymFG4HJjU-1">
          <mxGeometry x="14.75" width="120" height="49.63252541047694" as="geometry" />
        </mxCell>
        <mxCell id="vgA2S2cVZu3ADlu_zDUt-2" value="&lt;font style=&quot;font-size: 14px;&quot;&gt;Start&lt;/font&gt;" style="text;html=1;whiteSpace=wrap;strokeColor=none;fillColor=none;align=center;verticalAlign=middle;rounded=0;" vertex="1" parent="VYweZS-9TX5ymFG4HJjU-1">
          <mxGeometry x="44.75" y="12.408131352619234" width="60" height="24.81626270523847" as="geometry" />
        </mxCell>
        <mxCell id="robcdEc2MZZZ-4U4yP8h-1" value="" style="rounded=0;whiteSpace=wrap;html=1;" vertex="1" parent="VYweZS-9TX5ymFG4HJjU-1">
          <mxGeometry x="0.5" y="95.12900703674745" width="149" height="52.941360437842064" as="geometry" />
        </mxCell>
        <mxCell id="robcdEc2MZZZ-4U4yP8h-2" value="&lt;div&gt;Start&lt;/div&gt;&lt;div&gt;Projektbearbeitung&lt;/div&gt;" style="text;html=1;whiteSpace=wrap;strokeColor=none;fillColor=none;align=center;verticalAlign=middle;rounded=0;" vertex="1" parent="VYweZS-9TX5ymFG4HJjU-1">
          <mxGeometry y="97.6106333072713" width="144.5" height="47.15089913995308" as="geometry" />
        </mxCell>
        <mxCell id="robcdEc2MZZZ-4U4yP8h-3" value="" style="rounded=0;whiteSpace=wrap;html=1;" vertex="1" parent="VYweZS-9TX5ymFG4HJjU-1">
          <mxGeometry x="1" y="174.54104769351056" width="149" height="52.941360437842064" as="geometry" />
        </mxCell>
        <mxCell id="robcdEc2MZZZ-4U4yP8h-4" value="Projekt-Verteilung" style="text;html=1;whiteSpace=wrap;strokeColor=none;fillColor=none;align=center;verticalAlign=middle;rounded=0;" vertex="1" parent="VYweZS-9TX5ymFG4HJjU-1">
          <mxGeometry x="0.5" y="177.0226739640344" width="144.5" height="47.15089913995308" as="geometry" />
        </mxCell>
        <mxCell id="robcdEc2MZZZ-4U4yP8h-5" value="" style="rounded=0;whiteSpace=wrap;html=1;" vertex="1" parent="VYweZS-9TX5ymFG4HJjU-1">
          <mxGeometry x="1.5" y="256.4347146207975" width="149" height="52.941360437842064" as="geometry" />
        </mxCell>
        <mxCell id="robcdEc2MZZZ-4U4yP8h-6" value="&lt;div&gt;Projektdaten&lt;/div&gt;&lt;div&gt;erfassen&lt;/div&gt;" style="text;html=1;whiteSpace=wrap;strokeColor=none;fillColor=none;align=center;verticalAlign=middle;rounded=0;" vertex="1" parent="VYweZS-9TX5ymFG4HJjU-1">
          <mxGeometry x="1" y="258.91634089132134" width="144.5" height="47.15089913995308" as="geometry" />
        </mxCell>
        <mxCell id="robcdEc2MZZZ-4U4yP8h-7" value="" style="rounded=0;whiteSpace=wrap;html=1;" vertex="1" parent="VYweZS-9TX5ymFG4HJjU-1">
          <mxGeometry x="1.75" y="330.88350273651287" width="149" height="52.941360437842064" as="geometry" />
        </mxCell>
        <mxCell id="robcdEc2MZZZ-4U4yP8h-8" value="Wagenplanung" style="text;html=1;whiteSpace=wrap;strokeColor=none;fillColor=none;align=center;verticalAlign=middle;rounded=0;" vertex="1" parent="VYweZS-9TX5ymFG4HJjU-1">
          <mxGeometry x="1.25" y="333.3651290070367" width="144.5" height="47.15089913995308" as="geometry" />
        </mxCell>
        <mxCell id="robcdEc2MZZZ-4U4yP8h-9" value="" style="rounded=0;whiteSpace=wrap;html=1;" vertex="1" parent="VYweZS-9TX5ymFG4HJjU-1">
          <mxGeometry x="2.25" y="400.36903831118065" width="149" height="52.941360437842064" as="geometry" />
        </mxCell>
        <mxCell id="robcdEc2MZZZ-4U4yP8h-10" value="Lokplanung" style="text;html=1;whiteSpace=wrap;strokeColor=none;fillColor=none;align=center;verticalAlign=middle;rounded=0;" vertex="1" parent="VYweZS-9TX5ymFG4HJjU-1">
          <mxGeometry x="1.75" y="402.85066458170445" width="144.5" height="47.15089913995308" as="geometry" />
        </mxCell>
        <mxCell id="robcdEc2MZZZ-4U4yP8h-36" style="edgeStyle=none;curved=1;rounded=0;orthogonalLoop=1;jettySize=auto;html=1;entryX=0.493;entryY=-0.001;entryDx=0;entryDy=0;fontSize=12;startSize=8;endSize=8;entryPerimeter=0;" edge="1" parent="VYweZS-9TX5ymFG4HJjU-1" source="robcdEc2MZZZ-4U4yP8h-11" target="robcdEc2MZZZ-4U4yP8h-13">
          <mxGeometry relative="1" as="geometry" />
        </mxCell>
        <mxCell id="robcdEc2MZZZ-4U4yP8h-11" value="" style="rounded=0;whiteSpace=wrap;html=1;" vertex="1" parent="VYweZS-9TX5ymFG4HJjU-1">
          <mxGeometry x="2.25" y="476.05863956215796" width="149" height="52.941360437842064" as="geometry" />
        </mxCell>
        <mxCell id="robcdEc2MZZZ-4U4yP8h-12" value="&lt;div&gt;Personal-&lt;/div&gt;&lt;div&gt;Planung&lt;/div&gt;" style="text;html=1;whiteSpace=wrap;strokeColor=none;fillColor=none;align=center;verticalAlign=middle;rounded=0;" vertex="1" parent="VYweZS-9TX5ymFG4HJjU-1">
          <mxGeometry x="1.25" y="478.95387021110236" width="144.5" height="47.15089913995308" as="geometry" />
        </mxCell>
        <mxCell id="robcdEc2MZZZ-4U4yP8h-13" value="" style="rounded=0;whiteSpace=wrap;html=1;" vertex="1" parent="VYweZS-9TX5ymFG4HJjU-1">
          <mxGeometry x="2.75" y="550.9210320562939" width="149" height="52.941360437842064" as="geometry" />
        </mxCell>
        <mxCell id="robcdEc2MZZZ-4U4yP8h-14" value="Durchführung" style="text;html=1;whiteSpace=wrap;strokeColor=none;fillColor=none;align=center;verticalAlign=middle;rounded=0;" vertex="1" parent="VYweZS-9TX5ymFG4HJjU-1">
          <mxGeometry x="2.25" y="553.4026583268178" width="144.5" height="47.15089913995308" as="geometry" />
        </mxCell>
        <mxCell id="robcdEc2MZZZ-4U4yP8h-15" value="" style="rounded=0;whiteSpace=wrap;html=1;" vertex="1" parent="VYweZS-9TX5ymFG4HJjU-1">
          <mxGeometry x="3.25" y="622.0609851446443" width="149" height="52.941360437842064" as="geometry" />
        </mxCell>
        <mxCell id="robcdEc2MZZZ-4U4yP8h-16" value="&lt;div&gt;Rechnungen&lt;/div&gt;&lt;div&gt;Hauptleistungen&lt;/div&gt;" style="text;html=1;whiteSpace=wrap;strokeColor=none;fillColor=none;align=center;verticalAlign=middle;rounded=0;" vertex="1" parent="VYweZS-9TX5ymFG4HJjU-1">
          <mxGeometry x="2.75" y="624.542611415168" width="144.5" height="47.15089913995308" as="geometry" />
        </mxCell>
        <mxCell id="robcdEc2MZZZ-4U4yP8h-17" value="" style="rounded=0;whiteSpace=wrap;html=1;" vertex="1" parent="VYweZS-9TX5ymFG4HJjU-1">
          <mxGeometry x="2" y="703.9546520719312" width="149" height="47.15089913995308" as="geometry" />
        </mxCell>
        <mxCell id="robcdEc2MZZZ-4U4yP8h-18" value="Freimeldung" style="text;html=1;whiteSpace=wrap;strokeColor=none;fillColor=none;align=center;verticalAlign=middle;rounded=0;" vertex="1" parent="VYweZS-9TX5ymFG4HJjU-1">
          <mxGeometry x="3.25" y="701.4730258014073" width="144.5" height="47.15089913995308" as="geometry" />
        </mxCell>
        <mxCell id="robcdEc2MZZZ-4U4yP8h-39" style="edgeStyle=none;curved=1;rounded=0;orthogonalLoop=1;jettySize=auto;html=1;entryX=0.5;entryY=0;entryDx=0;entryDy=0;fontSize=12;startSize=8;endSize=8;" edge="1" parent="VYweZS-9TX5ymFG4HJjU-1" source="robcdEc2MZZZ-4U4yP8h-19" target="robcdEc2MZZZ-4U4yP8h-21">
          <mxGeometry relative="1" as="geometry" />
        </mxCell>
        <mxCell id="robcdEc2MZZZ-4U4yP8h-19" value="" style="rounded=0;whiteSpace=wrap;html=1;" vertex="1" parent="VYweZS-9TX5ymFG4HJjU-1">
          <mxGeometry x="4.25" y="773.4401876465989" width="149" height="52.941360437842064" as="geometry" />
        </mxCell>
        <mxCell id="robcdEc2MZZZ-4U4yP8h-20" value="&lt;div&gt;Rechnung&amp;nbsp;&lt;/div&gt;&lt;div&gt;Wagenstand&lt;/div&gt;" style="text;html=1;whiteSpace=wrap;strokeColor=none;fillColor=none;align=center;verticalAlign=middle;rounded=0;" vertex="1" parent="VYweZS-9TX5ymFG4HJjU-1">
          <mxGeometry x="3.25" y="776.3354182955434" width="144.5" height="47.15089913995308" as="geometry" />
        </mxCell>
        <mxCell id="robcdEc2MZZZ-4U4yP8h-40" style="edgeStyle=none;curved=1;rounded=0;orthogonalLoop=1;jettySize=auto;html=1;entryX=0.5;entryY=0;entryDx=0;entryDy=0;fontSize=12;startSize=8;endSize=8;" edge="1" parent="VYweZS-9TX5ymFG4HJjU-1" source="robcdEc2MZZZ-4U4yP8h-21" target="robcdEc2MZZZ-4U4yP8h-23">
          <mxGeometry relative="1" as="geometry" />
        </mxCell>
        <mxCell id="robcdEc2MZZZ-4U4yP8h-21" value="" style="rounded=0;whiteSpace=wrap;html=1;" vertex="1" parent="VYweZS-9TX5ymFG4HJjU-1">
          <mxGeometry x="4.75" y="847.061767005473" width="149" height="52.941360437842064" as="geometry" />
        </mxCell>
        <mxCell id="robcdEc2MZZZ-4U4yP8h-22" value="&lt;div&gt;Rechnung&lt;/div&gt;&lt;div&gt;Sonstiges&lt;/div&gt;" style="text;html=1;whiteSpace=wrap;strokeColor=none;fillColor=none;align=center;verticalAlign=middle;rounded=0;" vertex="1" parent="VYweZS-9TX5ymFG4HJjU-1">
          <mxGeometry x="4.25" y="849.5433932759969" width="144.5" height="47.15089913995308" as="geometry" />
        </mxCell>
        <mxCell id="robcdEc2MZZZ-4U4yP8h-23" value="" style="rounded=0;whiteSpace=wrap;html=1;" vertex="1" parent="VYweZS-9TX5ymFG4HJjU-1">
          <mxGeometry x="5.25" y="917.374511336982" width="149" height="52.941360437842064" as="geometry" />
        </mxCell>
        <mxCell id="robcdEc2MZZZ-4U4yP8h-24" value="&lt;div&gt;Prüfung&lt;/div&gt;&lt;div&gt;Abschluss&lt;/div&gt;" style="text;html=1;whiteSpace=wrap;strokeColor=none;fillColor=none;align=center;verticalAlign=middle;rounded=0;" vertex="1" parent="VYweZS-9TX5ymFG4HJjU-1">
          <mxGeometry x="4.75" y="919.8561376075058" width="144.5" height="47.15089913995308" as="geometry" />
        </mxCell>
        <mxCell id="robcdEc2MZZZ-4U4yP8h-25" value="" style="rounded=0;whiteSpace=wrap;html=1;" vertex="1" parent="VYweZS-9TX5ymFG4HJjU-1">
          <mxGeometry x="18.75" y="1008.367474589523" width="120" height="49.63252541047694" as="geometry" />
        </mxCell>
        <mxCell id="robcdEc2MZZZ-4U4yP8h-26" value="Ende" style="text;html=1;whiteSpace=wrap;strokeColor=none;fillColor=none;align=center;verticalAlign=middle;rounded=0;" vertex="1" parent="VYweZS-9TX5ymFG4HJjU-1">
          <mxGeometry x="48.75" y="1020.7756059421422" width="60" height="24.81626270523847" as="geometry" />
        </mxCell>
        <mxCell id="robcdEc2MZZZ-4U4yP8h-27" value="" style="endArrow=classic;html=1;rounded=0;fontSize=12;startSize=8;endSize=8;curved=1;entryX=0.491;entryY=0.013;entryDx=0;entryDy=0;exitX=0.493;exitY=0.996;exitDx=0;exitDy=0;entryPerimeter=0;exitPerimeter=0;" edge="1" parent="VYweZS-9TX5ymFG4HJjU-1" source="robcdEc2MZZZ-4U4yP8h-1" target="robcdEc2MZZZ-4U4yP8h-3">
          <mxGeometry width="50" height="50" relative="1" as="geometry">
            <mxPoint x="-194.25" y="172.0594214229867" as="sourcePoint" />
            <mxPoint x="-144.25" y="130.6989835809226" as="targetPoint" />
          </mxGeometry>
        </mxCell>
        <mxCell id="robcdEc2MZZZ-4U4yP8h-28" value="" style="endArrow=classic;html=1;rounded=0;fontSize=12;startSize=8;endSize=8;curved=1;exitX=0.5;exitY=1;exitDx=0;exitDy=0;entryX=0.498;entryY=0.037;entryDx=0;entryDy=0;entryPerimeter=0;" edge="1" parent="VYweZS-9TX5ymFG4HJjU-1" source="vgA2S2cVZu3ADlu_zDUt-1" target="robcdEc2MZZZ-4U4yP8h-1">
          <mxGeometry width="50" height="50" relative="1" as="geometry">
            <mxPoint x="-135.25" y="103.40109460516028" as="sourcePoint" />
            <mxPoint x="-85.25" y="62.040656763096166" as="targetPoint" />
          </mxGeometry>
        </mxCell>
        <mxCell id="robcdEc2MZZZ-4U4yP8h-29" value="" style="endArrow=classic;html=1;rounded=0;fontSize=12;startSize=8;endSize=8;curved=1;exitX=0.5;exitY=1;exitDx=0;exitDy=0;entryX=0.492;entryY=0.03;entryDx=0;entryDy=0;entryPerimeter=0;" edge="1" parent="VYweZS-9TX5ymFG4HJjU-1" source="robcdEc2MZZZ-4U4yP8h-3" target="robcdEc2MZZZ-4U4yP8h-5">
          <mxGeometry width="50" height="50" relative="1" as="geometry">
            <mxPoint x="-197.25" y="220.86473807662236" as="sourcePoint" />
            <mxPoint x="73.75" y="255.60750586395622" as="targetPoint" />
          </mxGeometry>
        </mxCell>
        <mxCell id="robcdEc2MZZZ-4U4yP8h-30" value="" style="endArrow=classic;html=1;rounded=0;fontSize=12;startSize=8;endSize=8;curved=1;" edge="1" parent="VYweZS-9TX5ymFG4HJjU-1">
          <mxGeometry width="50" height="50" relative="1" as="geometry">
            <mxPoint x="74" y="384" as="sourcePoint" />
            <mxPoint x="73.75" y="399.5418295543393" as="targetPoint" />
          </mxGeometry>
        </mxCell>
        <mxCell id="robcdEc2MZZZ-4U4yP8h-31" value="" style="endArrow=classic;html=1;rounded=0;fontSize=12;startSize=8;endSize=8;curved=1;exitX=0.486;exitY=1.01;exitDx=0;exitDy=0;exitPerimeter=0;" edge="1" parent="VYweZS-9TX5ymFG4HJjU-1" source="robcdEc2MZZZ-4U4yP8h-5">
          <mxGeometry width="50" height="50" relative="1" as="geometry">
            <mxPoint x="73.75" y="311.03049257232215" as="sourcePoint" />
            <mxPoint x="73.75" y="330.88350273651287" as="targetPoint" />
          </mxGeometry>
        </mxCell>
        <mxCell id="robcdEc2MZZZ-4U4yP8h-32" value="" style="endArrow=classic;html=1;rounded=0;fontSize=12;startSize=8;endSize=8;curved=1;" edge="1" parent="VYweZS-9TX5ymFG4HJjU-1">
          <mxGeometry width="50" height="50" relative="1" as="geometry">
            <mxPoint x="75" y="454" as="sourcePoint" />
            <mxPoint x="75" y="476" as="targetPoint" />
          </mxGeometry>
        </mxCell>
        <mxCell id="robcdEc2MZZZ-4U4yP8h-33" value="" style="endArrow=classic;html=1;rounded=0;fontSize=12;startSize=8;endSize=8;curved=1;exitX=0.495;exitY=1;exitDx=0;exitDy=0;exitPerimeter=0;" edge="1" parent="VYweZS-9TX5ymFG4HJjU-1" source="robcdEc2MZZZ-4U4yP8h-13">
          <mxGeometry width="50" height="50" relative="1" as="geometry">
            <mxPoint x="-122.25" y="585.6637998436278" as="sourcePoint" />
            <mxPoint x="75.75" y="622.0609851446443" as="targetPoint" />
          </mxGeometry>
        </mxCell>
        <mxCell id="robcdEc2MZZZ-4U4yP8h-34" value="" style="endArrow=classic;html=1;rounded=0;fontSize=12;startSize=8;endSize=8;curved=1;entryX=0.49;entryY=0.003;entryDx=0;entryDy=0;exitX=0.484;exitY=1.008;exitDx=0;exitDy=0;exitPerimeter=0;entryPerimeter=0;" edge="1" parent="VYweZS-9TX5ymFG4HJjU-1" source="robcdEc2MZZZ-4U4yP8h-15" target="robcdEc2MZZZ-4U4yP8h-17">
          <mxGeometry width="50" height="50" relative="1" as="geometry">
            <mxPoint x="74.75" y="675.0023455824863" as="sourcePoint" />
            <mxPoint x="-15.25" y="626.1970289288507" as="targetPoint" />
          </mxGeometry>
        </mxCell>
        <mxCell id="robcdEc2MZZZ-4U4yP8h-38" style="edgeStyle=none;curved=1;rounded=0;orthogonalLoop=1;jettySize=auto;html=1;fontSize=12;startSize=8;endSize=8;" edge="1" parent="VYweZS-9TX5ymFG4HJjU-1" source="robcdEc2MZZZ-4U4yP8h-17">
          <mxGeometry relative="1" as="geometry">
            <mxPoint x="75.75" y="773.4401876465989" as="targetPoint" />
          </mxGeometry>
        </mxCell>
        <mxCell id="robcdEc2MZZZ-4U4yP8h-41" style="edgeStyle=none;curved=1;rounded=0;orthogonalLoop=1;jettySize=auto;html=1;entryX=0.513;entryY=0.007;entryDx=0;entryDy=0;entryPerimeter=0;fontSize=12;startSize=8;endSize=8;" edge="1" parent="VYweZS-9TX5ymFG4HJjU-1" source="robcdEc2MZZZ-4U4yP8h-23" target="robcdEc2MZZZ-4U4yP8h-25">
          <mxGeometry relative="1" as="geometry" />
        </mxCell>
      </root>
    </mxGraphModel>
  </diagram>
</mxfile>
